<svg xmlns="http://www.w3.org/2000/svg"
     xmlns:xs="http://www.w3.org/2001/XMLSchema"
     width="100%"
     height="100%">
   <rect id="movies_count_by_genre_CHART"
         x="10"
         y="50"
         fill="ghostwhite"
         width="500"
         height="350"/>
   <rect y="50"
         width="2"
         fill="black"
         opacity="0.4"
         x="10"
         height="350"/>
   <text writing-mode="tb-rl" y="420" x="10">Crime</text>
   <rect y="50"
         width="2"
         fill="black"
         opacity="0.4"
         x="60"
         height="350"/>
   <text writing-mode="tb-rl" y="420" x="60">Drama</text>
   <rect y="50"
         width="2"
         fill="black"
         opacity="0.4"
         x="110"
         height="350"/>
   <text writing-mode="tb-rl" y="420" x="110">Fantasy</text>
   <rect y="50"
         width="2"
         fill="black"
         opacity="0.4"
         x="160"
         height="350"/>
   <text writing-mode="tb-rl" y="420" x="160">Action</text>
   <rect y="50"
         width="2"
         fill="black"
         opacity="0.4"
         x="210"
         height="350"/>
   <text writing-mode="tb-rl" y="420" x="210">Biography</text>
   <rect y="50"
         width="2"
         fill="black"
         opacity="0.4"
         x="260"
         height="350"/>
   <text writing-mode="tb-rl" y="420" x="260">Adventure</text>
   <rect y="50"
         width="2"
         fill="black"
         opacity="0.4"
         x="310"
         height="350"/>
   <text writing-mode="tb-rl" y="420" x="310">Thriller</text>
   <rect y="50"
         width="2"
         fill="black"
         opacity="0.4"
         x="360"
         height="350"/>
   <text writing-mode="tb-rl" y="420" x="360">History</text>
   <rect y="50"
         width="2"
         fill="black"
         opacity="0.4"
         x="410"
         height="350"/>
   <text writing-mode="tb-rl" y="420" x="410">Romance</text>
   <rect y="50"
         width="2"
         fill="black"
         opacity="0.4"
         x="460"
         height="350"/>
   <text writing-mode="tb-rl" y="420" x="460">Western</text>
   <rect x="10"
         height="2"
         fill="black"
         opacity="0.4"
         y="50"
         width="500"/>
   <text x="2" y="400">0</text>
   <rect x="10"
         height="2"
         fill="black"
         opacity="0.4"
         y="166.66666666666669"
         width="500"/>
   <text x="2" y="283.3333333333333">1</text>
   <rect x="10"
         height="2"
         fill="black"
         opacity="0.4"
         y="283.33333333333337"
         width="500"/>
   <text x="2" y="166.66666666666666">2</text>
   <rect x="10"
         height="2"
         fill="black"
         opacity="0.4"
         y="400"
         width="500"/>
   <text x="2" y="50">3</text>
   <line style="stroke:rgb(255,0,0);stroke-width:2"
         x1="10"
         y1="50"
         x2="60"
         y2="50"/>
   <line style="stroke:rgb(255,0,0);stroke-width:2"
         x1="60"
         y1="50"
         x2="110"
         y2="50"/>
   <line style="stroke:rgb(255,0,0);stroke-width:2"
         x1="110"
         y1="50"
         x2="160"
         y2="283.3333333333333"/>
   <line style="stroke:rgb(255,0,0);stroke-width:2"
         x1="160"
         y1="283.3333333333333"
         x2="210"
         y2="50"/>
   <line style="stroke:rgb(255,0,0);stroke-width:2"
         x1="210"
         y1="50"
         x2="260"
         y2="166.66666666666666"/>
   <line style="stroke:rgb(255,0,0);stroke-width:2"
         x1="260"
         y1="166.66666666666666"
         x2="310"
         y2="400"/>
   <line style="stroke:rgb(255,0,0);stroke-width:2"
         x1="310"
         y1="400"
         x2="360"
         y2="166.66666666666666"/>
   <line style="stroke:rgb(255,0,0);stroke-width:2"
         x1="360"
         y1="166.66666666666666"
         x2="410"
         y2="283.3333333333333"/>
   <line style="stroke:rgb(255,0,0);stroke-width:2"
         x1="410"
         y1="283.3333333333333"
         x2="460"
         y2="166.66666666666666"/>
</svg>